# xmcd CD database file
#
# Track frame offsets:
#	150
#	9704
#	24127
#	63546
#	78657
#	98985
#	112343
#	126651
#	140413
#	157022
#	172981
#	188615
#	209439
#
# Disc length: 2837 seconds
#
# Revision: 0
# Processed by: cddbd v1.5.2PL0 Copyright (c) Steve Scherf et al.
# Submitted via: CDex 1.51
#
DISCID=b90b130d
DTITLE=Andreas Willers with special guest Paul Bley - In The North
DYEAR=2003
DGENRE=Jazz
TTITLE0=Variations on Yggdrasill by Jimmy Guiffre
TTITLE1=Carla
TTITLE2=Divided Man
TTITLE3=Mood
TTITLE4=In the North
TTITLE5=Motion
TTITLE6=Face One
TTITLE7=Face Two
TTITLE8=The Train and the River
TTITLE9=Voodoo
TTITLE10=Glaswerk
TTITLE11=Motif
TTITLE12=Gotta Dance
EXTD=YEAR: 2003
EXTT0=
EXTT1=
EXTT2=
EXTT3=
EXTT4=
EXTT5=
EXTT6=
EXTT7=
EXTT8=
EXTT9=
EXTT10=
EXTT11=
EXTT12=
PLAYORDER=
